<?xml version="1.0" encoding="UTF-8"?>
<svg width="1440px" height="272px" viewBox="0 0 1440 272" version="1.1" xmlns="http://www.w3.org/2000/svg" xmlns:xlink="http://www.w3.org/1999/xlink">
    <!-- Generator: Sketch 53 (72520) - https://sketchapp.com -->
    <title>moon</title>
    <desc>Created with Sketch.</desc>
    <defs>
        <linearGradient x1="0%" y1="87.6960511%" x2="100%" y2="87.6960511%" id="linearGradient-1">
            <stop stop-color="#FDFDFF" offset="0%"></stop>
            <stop stop-color="#E3E2FF" offset="100%"></stop>
        </linearGradient>
        <path d="M0,140.916219 C80.3314782,112.827324 140.695893,93.2101978 181.093243,82.0648411 C197.699879,77.4831823 193.56332,40.2391771 210.204747,36.092997 C218.641915,33.9908922 254.193354,21.2327627 270.097418,24.3771178 C291.562878,28.6210033 295.086459,52.7507008 306.50233,50.2685176 C393.376359,31.3792675 474.743345,20.1944174 557.915292,14.5125589 C564.683203,14.0502118 574.984393,1.52164236 581.780146,1.1309851 C588.888191,0.722375568 596.013622,0.35233225 603.160946,0.0194978632 C615.164666,-0.539487696 623.708812,11.1091394 635.857396,10.7536288 C663.555112,9.94309553 691.684834,9.64468327 720.499653,9.78219406 C852.107515,10.4102563 1084.42372,41.4564087 1213.94134,68.2282106 C1234.28769,72.433881 1268.61695,37.5199135 1294.47378,44.3402756 C1306.49157,47.510255 1323.40556,49.7346 1336.61373,53.4694104 C1351.88755,57.7883158 1352.4286,104.139913 1369.29426,109.214135 C1403.05637,119.371842 1426.62495,129.939204 1440,140.916219 L1440,250 L0,250 L0,140.916219 Z" id="path-2"></path>
        <filter x="-1.6%" y="-13.2%" width="103.2%" height="118.4%" filterUnits="objectBoundingBox" id="filter-4">
            <feOffset dx="0" dy="-10" in="SourceAlpha" result="shadowOffsetOuter1"></feOffset>
            <feGaussianBlur stdDeviation="6" in="shadowOffsetOuter1" result="shadowBlurOuter1"></feGaussianBlur>
            <feColorMatrix values="0 0 0 0 0.611363757   0 0 0 0 0.596078431   0 0 0 0 0.890196078  0 0 0 0.299507473 0" type="matrix" in="shadowBlurOuter1"></feColorMatrix>
        </filter>
    </defs>
    <g id="homepage" stroke="none" stroke-width="1" fill="none" fill-rule="evenodd">
        <g id="illus-homepage" transform="translate(0.000000, -1465.000000)">
            <g id="moon" transform="translate(0.000000, 1487.000000)">
                <mask id="mask-3" fill="white">
                    <use xlink:href="#path-2"></use>
                </mask>
                <g id="Path-113">
                    <use fill="black" fill-opacity="1" filter="url(#filter-4)" xlink:href="#path-2"></use>
                    <use fill="url(#linearGradient-1)" fill-rule="evenodd" xlink:href="#path-2"></use>
                </g>
            </g>
        </g>
    </g>
</svg>