<?xml version="1.0" encoding="UTF-8"?>
<svg width="124px" height="89px" viewBox="0 0 124 89" version="1.1" xmlns="http://www.w3.org/2000/svg" xmlns:xlink="http://www.w3.org/1999/xlink">
    <!-- Generator: Sketch 52.6 (67491) - http://www.bohemiancoding.com/sketch -->
    <title>logo</title>
    <desc>Created with Sketch.</desc>
    <defs>
        <polygon id="path-1" points="0 88.042994 141.714717 88.042994 141.714717 0 0 0"></polygon>
    </defs>
    <g id="Page-1" stroke="none" stroke-width="1" fill="none" fill-rule="evenodd">
        <g id="PropoA---HD---Logiciels" transform="translate(-250.000000, -20.000000)">
            <g id="Header" transform="translate(250.000000, 20.000000)">
                <g id="header-left">
                    <g id="logo">
                        <g id="Group-16">
                            <mask id="mask-2" fill="white">
                                <use xlink:href="#path-1"></use>
                            </mask>
                            <g id="Clip-10"></g>
                            <path d="M13.2659223,53.4005542 C13.1453078,52.1298253 12.7321392,51.1537892 12.0259886,50.4707349 C11.3181271,49.7876807 10.3771633,49.445512 9.2035247,49.445512 C8.05341024,49.445512 7.10560301,49.7876807 6.36309699,50.4707349 C5.62059096,51.1537892 5.1406994,52.1298253 4.92556084,53.4005542 L13.2659223,53.4005542 Z M10.6410608,65.0843313 C8.50806687,65.0843313 6.64453072,64.7006747 5.05088012,63.9337892 C3.4563741,63.1673313 2.21644036,62.0463012 1.32979578,60.5728373 C0.443578916,59.0989458 4.27710843e-05,57.3671446 4.27710843e-05,55.3778614 C4.27710843e-05,53.5327169 0.382843976,51.8727711 1.15015723,50.3984518 C1.91704277,48.9241325 3.00770542,47.7620422 4.42214518,46.9113253 C5.83615723,46.0610361 7.47771145,45.6354639 9.34766325,45.6354639 C11.0730488,45.6354639 12.5884283,46.0011566 13.8950849,46.7316867 C15.2008861,47.4626446 16.2196934,48.5109639 16.9506512,49.8775 C17.681609,51.2436084 18.0477295,52.8612108 18.0477295,54.7307349 C18.0477295,55.5215723 17.9874223,56.2405542 17.8672355,56.8876807 L4.96106084,56.8876807 C5.58423554,59.6203253 7.65735,60.9864337 11.1808319,60.9864337 C12.2826151,60.9864337 13.3557416,60.8730904 14.3985006,60.6446928 C15.4404042,60.4171506 16.3813681,60.0878133 17.2209645,59.6558253 L17.7235247,63.5740843 C16.8608319,64.0544036 15.8056693,64.4256566 14.5601753,64.6891265 C13.3138259,64.9530241 12.0071693,65.0843313 10.6410608,65.0843313 Z" id="Fill-1" fill="#2B2B2B" mask="url(#mask-2)"></path>
                            <path d="M21.1390952,46.2105211 L25.9564024,46.2105211 L25.9927578,48.4756777 C26.5196976,47.5650813 27.2570711,46.8632078 28.2040229,46.3721958 C29.1496916,45.8811837 30.2583181,45.63525 31.529047,45.63525 C33.6864205,45.63525 35.3335349,46.3007681 36.4721012,47.6296657 C37.6102398,48.9607018 38.1803783,50.8841175 38.1803783,53.4007681 L38.1803783,64.5092741 L33.1825771,64.5092741 L33.1825771,54.3348886 C33.1825771,51.4833404 32.0919145,50.0569247 29.9110169,50.0569247 C28.7129988,50.0569247 27.7835831,50.4585452 27.1253361,51.2613584 C26.4653783,52.0645994 26.1368964,53.1971777 26.1368964,54.6590934 L26.1368964,64.5092741 L21.1390952,64.5092741 L21.1390952,46.2105211 Z" id="Fill-3" fill="#2B2B2B" mask="url(#mask-2)"></path>
                            <path d="M47.865206,65.0845024 C46.4742904,65.0845024 45.1560855,64.9228277 43.9105916,64.5990506 C42.6642422,64.2757012 41.7048867,63.8501289 41.0342361,63.3227614 L41.6454349,59.2607916 C42.4597964,59.8121108 43.4123084,60.255647 44.5038265,60.5901169 C45.5936337,60.9267253 46.6428084,61.0939602 47.6496398,61.0939602 C49.6863988,61.0939602 50.705206,60.5789964 50.705206,59.548641 C50.705206,58.996894 50.489212,58.5773096 50.0576518,58.2894602 C49.626947,58.0016108 48.7278988,57.6667133 47.3617904,57.2834843 C45.2048446,56.6842614 43.6646578,55.9229361 42.7416578,55.0003639 C41.8186578,54.0782193 41.3575855,52.8378578 41.3575855,51.2792795 C41.3575855,49.5299422 42.016688,48.1514301 43.3348928,47.1450265 C44.6530976,46.1386229 46.4627422,45.6352072 48.7633988,45.6352072 C49.8895614,45.6352072 51.0161518,45.7669422 52.1431699,46.030412 C53.2697602,46.2947373 54.1927602,46.6420386 54.9113145,47.0731711 L54.3356157,51.0277855 C53.5931096,50.5962253 52.7359771,50.254912 51.7659289,50.0034181 C50.7950253,49.7510687 49.8660373,49.6257494 48.9789651,49.6257494 C47.2292,49.6257494 46.354959,50.0932373 46.354959,51.0277855 C46.354959,51.555153 46.5645373,51.9683217 46.9841217,52.2677193 C47.4032783,52.5679723 48.236459,52.8977373 49.4828084,53.2565867 C51.7838928,53.9280928 53.4066277,54.7189301 54.3544349,55.6295265 C55.3005313,56.5401229 55.7740072,57.7993036 55.7740072,59.4045024 C55.7740072,61.1782193 55.0729892,62.5678518 53.6713807,63.5742554 C52.2684892,64.5815145 50.3330976,65.0845024 47.865206,65.0845024" id="Fill-5" fill="#2B2B2B" mask="url(#mask-2)"></path>
                            <path d="M68.0691114,60.6269428 C69.5070753,60.6269428 70.676009,60.135503 71.5742018,59.1530512 C72.47325,58.1705994 72.9227741,56.9118464 72.9227741,55.3780753 C72.9227741,53.8203524 72.467262,52.5500512 71.5566657,51.566744 C70.6452139,50.5847199 69.4831235,50.0932801 68.0691114,50.0932801 C66.6546717,50.0932801 65.493009,50.5847199 64.5824127,51.566744 C63.6709608,52.5500512 63.2163042,53.8203524 63.2163042,55.3780753 C63.2163042,56.9118464 63.6658283,58.1705994 64.5644488,59.1530512 C65.4626416,60.135503 66.6315753,60.6269428 68.0691114,60.6269428 Z M58.5063524,46.2105211 L63.2881596,46.2105211 L63.3600151,48.5830331 C64.605509,46.6185572 66.6315753,45.63525 69.4352199,45.63525 C71.0412741,45.63525 72.4847982,46.0304548 73.767503,46.8217199 C75.0493524,47.6121295 76.0621717,48.7447078 76.8055331,50.2185994 C77.5480392,51.6929187 77.9201476,53.3887922 77.9201476,55.3057922 C77.9201476,57.079509 77.5544548,58.7035271 76.823497,60.176991 C76.0921114,61.6513102 75.0553404,62.8377801 73.7131837,63.7368283 C72.3710271,64.6350211 70.8612078,65.0845452 69.1837259,65.0845452 C67.961756,65.0845452 66.8591175,64.8505873 65.8766657,64.3835271 C64.8933584,63.9160392 64.1029488,63.2509488 63.5041536,62.388256 L63.5041536,73.3171235 L58.5063524,73.3171235 L58.5063524,46.2105211 Z" id="Fill-7" fill="#2B2B2B" mask="url(#mask-2)"></path>
                            <polygon id="Fill-9" fill="#2B2B2B" mask="url(#mask-2)" points="80.7603614 64.5090602 85.7573072 64.5090602 85.7573072 46.2103072 80.7603614 46.2103072"></polygon>
                            <path d="M89.6398952,46.2105211 L94.4572024,46.2105211 L94.4935578,49.2301596 C94.9961181,48.1514729 95.6731843,47.3242801 96.5243289,46.7498645 C97.3741904,46.1745934 98.3630578,45.8871717 99.4900759,45.8871717 C100.256961,45.8871717 100.963967,46.0189066 101.611522,46.2823765 L101.179961,50.9923283 C100.437455,50.7044789 99.6936663,50.5603404 98.9511602,50.5603404 C97.5850518,50.5603404 96.5243289,51.0513524 95.7694193,52.0342319 C95.0140819,53.0175392 94.636841,54.3951958 94.636841,56.1684849 L94.636841,64.5092741 L89.6398952,64.5092741 L89.6398952,46.2105211 Z" id="Fill-11" fill="#2B2B2B" mask="url(#mask-2)"></path>
                            <polygon id="Fill-12" fill="#2B2B2B" mask="url(#mask-2)" points="103.804566 64.4885301 108.801512 64.4885301 108.801512 46.1897771 103.804566 46.1897771"></polygon>
                            <polygon id="Fill-13" fill="#2B2B2B" mask="url(#mask-2)" points="114.409528 50.3447741 110.850119 50.3447741 110.850119 46.2105211 114.409528 46.2105211 114.409528 41.2490753 119.40733 41.2490753 119.40733 46.2105211 123.757149 46.2105211 123.757149 50.3447741 119.40733 50.3447741 119.40733 64.5092741 114.409528 64.5092741"></polygon>
                            <path d="M83.2405283,5.78808253 C82.3778355,5.78808253 81.6644139,5.50707651 81.1015464,4.94335361 C80.5382512,4.38048614 80.2563898,3.69144398 80.2563898,2.87622711 C80.2563898,2.06143795 80.5382512,1.37838373 81.1015464,0.826636747 C81.6644139,0.275745181 82.3778355,-0.000128313253 83.2405283,-0.000128313253 C84.1040765,-0.000128313253 84.8162151,0.275745181 85.3795102,0.826636747 C85.9428054,1.37838373 86.2250946,2.06143795 86.2250946,2.87622711 C86.2250946,3.71496807 85.9428054,4.40999819 85.3795102,4.96088976 C84.8162151,5.51306446 84.1040765,5.78808253 83.2405283,5.78808253" id="Fill-14" fill="#FFC506" mask="url(#mask-2)"></path>
                            <path d="M106.321217,82.2547404 C107.18391,82.2547404 107.897331,82.5357464 108.460199,83.099897 C109.023494,83.6623367 109.305355,84.3513789 109.305355,85.1670235 C109.305355,85.9813849 109.023494,86.6644392 108.460199,87.2161861 C107.897331,87.7675054 107.18391,88.0429512 106.321217,88.0429512 C105.457669,88.0429512 104.74553,87.7675054 104.182235,87.2161861 C103.61894,86.6644392 103.336651,85.9813849 103.336651,85.1670235 C103.336651,84.3278548 103.61894,83.6328247 104.182235,83.0819331 C104.74553,82.5301861 105.457669,82.2547404 106.321217,82.2547404" id="Fill-15" fill="#FFC506" mask="url(#mask-2)"></path>
                        </g>
                    </g>
                </g>
            </g>
        </g>
    </g>
</svg>